<svg xmlns="http://www.w3.org/2000/svg" id="Camada_1" viewBox="0 0 300 222.33"><defs><style>.cls-1{fill:#f37021;}</style></defs><path class="cls-1" d="M241.56,77.75l31.57-11.63v-31.01s-38.21,29.91-38.21,29.91c-2.4,1.85-3.88,3.69-3.88,6.46,0,4.8,4.61,8.49,10.52,6.28Zm-10.52,107.62h20.31s0-97.84,0-97.84h-20.31s0,97.84,0,97.84Zm-92.12,0h20.31s0-37.66,0-37.66h50.76s0-18.46,0-18.46h-50.76c-.37-15.32,9.97-24.55,24.18-24.55,7.75,0,14.4,2.77,19.38,6.28l12.92-14.58c-9.41-7.01-19.57-10.71-31.75-10.71-26.77,0-45.04,17.72-45.04,43.57v56.12ZM47.55,126.12c2.95-13.29,13.48-21.41,28.06-21.41,14.77,0,24.55,8.12,26.4,21.41H47.55Zm75.32,8.31c0-22.52-16.24-48.73-47.26-48.73-27.32,0-48.73,20.49-48.73,50.03,0,29.54,21.6,51.5,50.76,51.5,18.09,0,32.67-8.68,42.27-21.41l-14.21-11.63c-7.01,9.23-16.61,14.03-28.61,14.03-15.88,0-26.58-9.05-29.54-23.63H116.22c4.98,0,6.65-2.95,6.65-10.15Z"/></svg>